HIERARCHY
ROOT hip
{
	OFFSET 0.000000 0.000000 0.000000
	CHANNELS 6 Xposition Yposition Zposition Xrotation Zrotation Yrotation 
	JOINT abdomen
	{
		OFFSET 0.000000 3.422050 0.000000
		CHANNELS 3 Xrotation Zrotation Yrotation 
		JOINT chest
		{
			OFFSET 0.000000 8.486693 -0.684411
			CHANNELS 3 Xrotation Zrotation Yrotation 
			JOINT neck
			{
				OFFSET 0.000000 10.266162 -0.273764
				CHANNELS 3 Xrotation Zrotation Yrotation 
				JOINT head
				{
					OFFSET 0.000000 3.148285 0.000000
					CHANNELS 3 Xrotation Zrotation Yrotation 
					End Site
					{
						OFFSET 0.000000 3.148289 0.000000
					}
				}
			}
			JOINT lCollar
			{
				OFFSET 3.422053 6.707223 -0.821293
				CHANNELS 3 Yrotation Zrotation Xrotation 
				JOINT lShldr
				{
					OFFSET 3.285171 0.000000 0.000000
					CHANNELS 3 Zrotation Yrotation Xrotation 
					JOINT lForeArm
					{
						OFFSET 10.129278 0.000000 0.000000
						CHANNELS 3 Yrotation Zrotation Xrotation 
						JOINT lHand
						{
							OFFSET 8.486692 0.000000 0.000000
							CHANNELS 3 Zrotation Yrotation Xrotation 
							End Site
							{
								OFFSET 4.106464 0.000000 0.000000
							}
						}
					}
				}
			}
			JOINT rCollar
			{
				OFFSET -3.558935 6.707223 -0.821293
				CHANNELS 3 Yrotation Zrotation Xrotation 
				JOINT rShldr
				{
					OFFSET -3.148289 0.000000 0.000000
					CHANNELS 3 Zrotation Yrotation Xrotation 
					JOINT rForeArm
					{
						OFFSET -10.266159 0.000000 0.000000
						CHANNELS 3 Yrotation Zrotation Xrotation 
						JOINT rHand
						{
							OFFSET -8.349810 0.000000 0.000000
							CHANNELS 3 Zrotation Yrotation Xrotation 
							End Site
							{
								OFFSET -4.106464 0.000000 0.000000
							}
						}
					}
				}
			}
		}
	}
	JOINT lThigh
	{
		OFFSET 5.338403 -1.642589 1.368821
		CHANNELS 3 Xrotation Zrotation Yrotation 
		JOINT lShin
		{
			OFFSET -2.053232 -20.121670 0.000000
			CHANNELS 3 Xrotation Zrotation Yrotation 
			JOINT lFoot
			{
				OFFSET 0.000000 -19.300380 -1.231939
				CHANNELS 3 Xrotation Yrotation Zrotation 
				End Site
				{
					OFFSET 0.000000 -2.463878 4.653993
				}
			}
		}
	}
	JOINT rThigh
	{
		OFFSET -5.338403 -1.642589 1.368821
		CHANNELS 3 Xrotation Zrotation Yrotation 
		JOINT rShin
		{
			OFFSET 2.053232 -20.121670 0.000000
			CHANNELS 3 Xrotation Zrotation Yrotation 
			JOINT rFoot
			{
				OFFSET 0.000000 -19.300380 -1.231939
				CHANNELS 3 Xrotation Yrotation Zrotation 
				End Site
				{
					OFFSET 0.000000 -2.463878 4.653993
				}
			}
		}
	}
}
MOTION
Frames: 13
Frame Time: 0.033325
0.000000 43.528500 0.000000 0.000000 0.000000 0.000000 0.000000 0.000000 0.000000 0.000000 0.000000 0.000000 0.000000 0.000000 0.000000 0.000000 0.000000 0.000000 0.000000 0.000000 0.000000 0.000000 0.000000 0.000000 0.000000 0.000000 0.000000 0.000000 0.000000 0.000000 0.000000 0.000000 0.000000 0.000000 0.000000 0.000000 0.000000 0.000000 0.000000 0.000000 0.000000 0.000000 0.000000 0.000000 0.000000 0.000000 0.000000 0.000000 0.000000 0.000000 0.000000 0.000000 0.000000 0.000000 0.000000 0.000000 0.000000 0.000000 0.000000 0.000000 
9.963399 32.387634 -17.424683 17.998297 -0.002417 5.998527 43.321815 -17.899040 11.186036 25.952747 -9.036495 -2.196189 -17.000736 -0.002189 -16.000532 -30.999750 -13.000873 -18.002131 -54.697239 20.886696 -4.078752 -8.562943 -20.957357 -2.245809 -41.774757 0.425920 -21.681465 -54.501404 -4.878359 -33.091713 -7.465894 -4.820124 -0.081417 -12.264658 47.873714 -51.115280 56.902485 -27.118843 15.744708 6.996825 0.000000 0.000000 -56.836636 31.867144 2.869558 136.328003 4.628038 -1.453802 58.811405 9.357934 3.067817 -58.701954 -22.023869 -0.762922 136.206543 -4.852631 1.515755 54.379963 -0.665941 4.012891 
9.963399 32.387634 -17.424683 17.998295 -0.002416 5.998527 43.708359 -17.903679 11.171621 25.952747 -9.036494 -2.196189 -17.000736 -0.002189 -16.000532 -30.999750 -13.000873 -18.002131 -54.310509 21.214365 -4.448699 -8.562943 -20.957355 -2.245809 -42.815521 0.384282 -21.668789 -54.185829 -4.557347 -33.579140 -7.927194 -5.185725 -0.434245 -12.971810 47.878567 -51.585377 56.930470 -26.419809 15.644564 7.225734 -0.357379 -0.079903 -56.836632 31.867144 2.869559 136.328003 4.628038 -1.453802 58.811405 9.357934 3.067817 -58.701946 -22.023869 -0.762923 136.206543 -4.852631 1.515755 54.379959 -0.665940 4.012891 
9.963399 32.387634 -17.424683 17.998297 -0.002417 5.998528 44.094986 -17.908226 11.157171 25.952747 -9.036496 -2.196190 -17.000736 -0.002189 -16.000532 -30.999750 -13.000873 -18.002131 -53.920521 21.539803 -4.821976 -8.562944 -20.957361 -2.245809 -43.857639 0.342363 -21.656849 -53.872974 -4.233507 -34.064812 -8.391274 -5.548671 -0.790422 -13.679231 47.879517 -52.055672 56.959671 -25.720394 15.544579 7.455207 -0.714517 -0.161256 -56.836636 31.867144 2.869558 136.328003 4.628038 -1.453802 58.811405 9.357934 3.067817 -58.701958 -22.023870 -0.762922 136.206543 -4.852631 1.515755 54.379971 -0.665941 4.012892 
9.963399 32.387634 -17.424683 17.998297 -0.002417 5.998527 44.481689 -17.912683 11.142688 25.952747 -9.036495 -2.196189 -17.000736 -0.002189 -16.000532 -30.999750 -13.000873 -18.002131 -53.527245 21.862955 -5.198591 -8.562943 -20.957357 -2.245809 -44.900970 0.300185 -21.645666 -53.562885 -3.906900 -34.548725 -8.858130 -5.908895 -1.149940 -14.386802 47.876575 -52.526066 56.990051 -25.020641 15.444715 7.685256 -1.071397 -0.244064 -56.836636 31.867144 2.869558 136.328003 4.628038 -1.453802 58.811405 9.357934 3.067817 -58.701954 -22.023869 -0.762922 136.206543 -4.852631 1.515755 54.379963 -0.665941 4.012891 
9.963399 32.387634 -17.424683 17.998297 -0.002416 5.998527 44.868439 -17.917044 11.128166 25.952747 -9.036495 -2.196189 -17.000736 -0.002189 -16.000532 -30.999750 -13.000873 -18.002129 -53.130688 22.183769 -5.578549 -8.562943 -20.957357 -2.245809 -45.945339 0.257768 -21.635246 -53.255573 -3.577567 -35.030865 -9.327753 -6.266329 -1.512787 -15.094391 47.869732 -52.996407 57.021622 -24.320623 15.344966 7.915891 -1.428002 -0.328330 -56.836636 31.867144 2.869558 136.328003 4.628038 -1.453801 58.811405 9.357934 3.067817 -58.701946 -22.023867 -0.762921 136.206543 -4.852631 1.515755 54.379959 -0.665941 4.012891 
9.963399 32.387634 -17.424683 17.998297 -0.002417 5.998527 45.255249 -17.921312 11.113615 25.952749 -9.036496 -2.196189 -17.000738 -0.002189 -16.000532 -30.999750 -13.000874 -18.002132 -52.730835 22.502205 -5.961863 -8.562944 -20.957359 -2.245809 -46.990562 0.215132 -21.625586 -52.951046 -3.245567 -35.511211 -9.800135 -6.620904 -1.878949 -15.801882 47.859001 -53.466618 57.054375 -23.620386 15.245295 8.147124 -1.784315 -0.414058 -56.836639 31.867146 2.869557 136.328003 4.628038 -1.453802 58.811413 9.357935 3.067817 -58.701954 -22.023870 -0.762922 136.206558 -4.852632 1.515755 54.379971 -0.665941 4.012892 
9.963399 32.387634 -17.424683 17.998297 -0.002417 5.998527 45.642105 -17.925486 11.099031 25.952747 -9.036495 -2.196189 -17.000736 -0.002189 -16.000532 -30.999750 -13.000873 -18.002131 -52.327686 22.818205 -6.348528 -8.562943 -20.957357 -2.245809 -48.036465 0.172299 -21.616701 -52.649338 -2.910951 -35.989761 -10.275264 -6.972554 -2.248414 -16.509142 47.844376 -53.936535 57.088272 -22.919985 15.145680 8.378966 -2.140320 -0.501254 -56.836636 31.867144 2.869558 136.328003 4.628038 -1.453802 58.811405 9.357934 3.067817 -58.701954 -22.023869 -0.762922 136.206543 -4.852631 1.515755 54.379963 -0.665941 4.012891 
9.963399 32.387634 -17.424683 17.998297 -0.002417 5.998527 46.029003 -17.929567 11.084418 25.952747 -9.036495 -2.196189 -17.000736 -0.002189 -16.000532 -30.999746 -13.000873 -18.002129 -51.921219 23.131714 -6.738559 -8.562943 -20.957357 -2.245809 -49.082897 0.129288 -21.608597 -52.350471 -2.573770 -36.466492 -10.753134 -7.321212 -2.621165 -17.216043 47.825855 -54.406044 57.123314 -22.219473 15.046096 8.611429 -2.495999 -0.589920 -56.836636 31.867144 2.869558 136.328003 4.628038 -1.453801 58.811405 9.357934 3.067817 -58.701954 -22.023869 -0.762922 136.206543 -4.852631 1.515755 54.379959 -0.665941 4.012891 
9.963399 32.387634 -17.424683 17.998295 -0.002417 5.998527 46.415924 -17.933558 11.069774 25.952747 -9.036495 -2.196189 -17.000736 -0.002190 -16.000532 -30.999750 -13.000873 -18.002131 -51.511475 23.442692 -7.131957 -8.562943 -20.957357 -2.245809 -50.129673 0.086124 -21.601280 -52.054443 -2.234076 -36.941391 -11.233726 -7.666811 -2.997185 -17.922464 47.803440 -54.875011 57.159519 -21.518915 14.946528 8.844521 -2.851335 -0.680060 -56.836636 31.867140 2.869557 136.328003 4.628038 -1.453802 58.811405 9.357934 3.067817 -58.701954 -22.023869 -0.762922 136.206543 -4.852631 1.515755 54.379963 -0.665940 4.012891 
9.963399 32.387634 -17.424683 17.998297 -0.002417 5.998528 46.802856 -17.937450 11.055103 25.952749 -9.036496 -2.196189 -17.000738 -0.002189 -16.000532 -30.999750 -13.000873 -18.002131 -51.098396 23.751074 -7.528718 -8.562943 -20.957357 -2.245809 -51.176609 0.042825 -21.594748 -51.761307 -1.891928 -37.414471 -11.717031 -8.009286 -3.376457 -18.628290 47.777161 -55.343349 57.196846 -20.818361 14.846948 9.078255 -3.206311 -0.771680 -56.836636 31.867144 2.869558 136.328003 4.628038 -1.453802 58.811413 9.357935 3.067817 -58.701954 -22.023870 -0.762923 136.206543 -4.852631 1.515755 54.379967 -0.665941 4.012891 
9.963399 32.387634 -17.424683 17.998297 -0.002417 5.998527 47.189800 -17.941250 11.040401 25.952747 -9.036495 -2.196189 -17.000736 -0.002189 -16.000532 -30.999750 -13.000874 -18.002132 -50.682014 24.056820 -7.928852 -8.562943 -20.957357 -2.245809 -52.223545 -0.000586 -21.589006 -51.471046 -1.547378 -37.885696 -12.203031 -8.348570 -3.758960 -19.333374 47.746986 -55.810886 57.235313 -20.117872 14.747338 9.312646 -3.560911 -0.864784 -56.836639 31.867146 2.869558 136.328003 4.628038 -1.453802 58.811405 9.357934 3.067817 -58.701954 -22.023869 -0.762922 136.206543 -4.852631 1.515755 54.379959 -0.665941 4.012891 
9.963399 32.387634 -17.424683 17.998297 -0.002416 5.998528 47.576752 -17.944954 11.025678 25.952747 -9.036495 -2.196189 -17.000736 -0.002189 -16.000532 -30.999750 -13.000874 -18.002132 -50.262306 24.359867 -8.332348 -8.562943 -20.957357 -2.245809 -53.270302 -0.044086 -21.584068 -51.183701 -1.200477 -38.355080 -12.691703 -8.684598 -4.144670 -20.037626 47.712959 -56.277557 57.274883 -19.417498 14.647671 9.547703 -3.915117 -0.959376 -56.836639 31.867146 2.869557 136.328003 4.628038 -1.453802 58.811405 9.357935 3.067816 -58.701954 -22.023869 -0.762922 136.206558 -4.852632 1.515755 54.379971 -0.665940 4.012891 
